<svg width="32" height="32" viewBox="0 0 32 32" fill="none" xmlns="http://www.w3.org/2000/svg">
<g clip-path="url(#clip0_1_2)">
<path d="M0 3C0 1.34315 1.34315 0 3 0H29C30.6569 0 32 1.34315 32 3V24H0V3Z" fill="#687EFF"/>
<circle cx="3" cy="28" r="2" fill="#70FFA1"/>
<circle cx="16" cy="28" r="2" fill="#FFD600"/>
<path d="M31 28C31 29.1046 30.1046 30 29 30C27.8954 30 27 29.1046 27 28C27 26.8954 27.8954 26 29 26C30.1046 26 31 26.8954 31 28Z" fill="#F68561"/>
<path d="M12.0511 19.168L18.8831 5.056L19.9551 5.568L13.1391 19.648L12.0511 19.168Z" fill="white"/>
</g>
<defs>
<clipPath id="clip0_1_2">
<rect width="32" height="32" fill="white"/>
</clipPath>
</defs>
</svg>
